<mxfile host="app.diagrams.net" modified="2023-04-15T13:11:22.426Z" agent="Mozilla/5.0 (Windows NT 10.0; Win64; x64) AppleWebKit/537.36 (KHTML, like Gecko) Chrome/110.0.0.0 YaBrowser/23.3.1.896 Yowser/2.5 Safari/537.36" version="21.1.2" etag="fQv1NvtteNvo6EiQHKRX" type="github">
  <diagram name="Страница 1" id="GgoyHnyJB75QY-wkuOqQ">
    <mxGraphModel>
      <root>
        <mxCell id="0" />
        <mxCell id="1" parent="0" />
      </root>
    </mxGraphModel>
  </diagram>
</mxfile>
